<svg width="26" height="26" viewBox="0 0 26 26" fill="none" xmlns="http://www.w3.org/2000/svg">
<mask id="mask0_2_403" style="mask-type:alpha" maskUnits="userSpaceOnUse" x="2" y="6" width="21" height="18">
<path fill-rule="evenodd" clip-rule="evenodd" d="M2.09589 6.854H22.6208V23.8114H2.09589V6.854Z" fill="white"/>
</mask>
<g mask="url(#mask0_2_403)">
<path fill-rule="evenodd" clip-rule="evenodd" d="M7.03745 8.42603C6.57531 8.42603 5.03064 8.61257 4.58736 11.0061L3.77834 17.2937C3.51531 19.0574 3.71861 20.3338 4.38406 21.1062C5.04112 21.8691 6.21691 22.24 7.97746 22.24H16.7257C17.824 22.24 19.3236 22.021 20.229 20.9752C20.9479 20.1463 21.1952 18.9118 20.9646 17.3053L20.1483 10.9631C19.8004 9.40062 18.8824 8.42603 17.7045 8.42603H7.03745ZM16.7257 23.8119H7.97745C5.7317 23.8119 4.16712 23.2617 3.19358 22.1309C2.21585 20.9971 1.88889 19.2963 2.22213 17.0767L3.03534 10.7618C3.56979 7.86632 5.52421 6.854 7.03744 6.854H17.7045C19.224 6.854 21.0715 7.86318 21.6951 10.6937L22.5219 17.0935C22.8184 19.159 22.4475 20.8158 21.4173 22.0041C20.3925 23.1862 18.7702 23.8119 16.7257 23.8119V23.8119Z" fill="black"/>
</g>
<path fill-rule="evenodd" clip-rule="evenodd" d="M16.8696 8.19523C16.4357 8.19523 16.0836 7.84312 16.0836 7.40927C16.0836 5.34587 14.4048 3.66811 12.3425 3.66811H12.3267C11.3406 3.66811 10.3797 4.06528 9.68277 4.75797C8.98274 5.45486 8.58138 6.42211 8.58138 7.40927C8.58138 7.84312 8.22927 8.19523 7.79542 8.19523C7.36157 8.19523 7.00946 7.84312 7.00946 7.40927C7.00946 6.00607 7.57954 4.63431 8.57299 3.64401C9.5633 2.65999 10.9288 2.09619 12.3236 2.09619H12.3456C15.2725 2.09619 17.6555 4.47922 17.6555 7.40927C17.6555 7.84312 17.3034 8.19523 16.8696 8.19523" fill="black"/>
<path fill-rule="evenodd" clip-rule="evenodd" d="M15.4502 12.9152H15.402C14.9681 12.9152 14.616 12.5631 14.616 12.1292C14.616 11.6954 14.9681 11.3433 15.402 11.3433C15.8358 11.3433 16.212 11.6954 16.212 12.1292C16.212 12.5631 15.884 12.9152 15.4502 12.9152" fill="black"/>
<path fill-rule="evenodd" clip-rule="evenodd" d="M9.33946 12.9152H9.29231C8.85846 12.9152 8.50635 12.5631 8.50635 12.1292C8.50635 11.6954 8.85846 11.3433 9.29231 11.3433C9.72616 11.3433 10.1024 11.6954 10.1024 12.1292C10.1024 12.5631 9.77331 12.9152 9.33946 12.9152" fill="black"/>
</svg>
