<svg width="29" height="29" viewBox="0 0 29 29" fill="none" xmlns="http://www.w3.org/2000/svg">
<circle cx="14.5" cy="14.5" r="14.1848" stroke="#464646" stroke-width="0.630435"/>
<path d="M23.8419 13.3653H21.6497V11.0957H20.5536V13.3653H18.3614V14.5001H20.5536V16.7697H21.6497V14.5001H23.8419V13.3653ZM11.7848 15.6349H14.8857C14.6581 16.2982 14.238 16.8723 13.6828 17.2787C13.1277 17.685 12.4647 17.9036 11.7848 17.9044C9.97186 17.9044 8.49652 16.377 8.49652 14.5001C8.49652 12.6232 9.97186 11.0957 11.7848 11.0957C12.5707 11.0957 13.327 11.3874 13.9145 11.9173L15.3548 10.2061C14.3648 9.31481 13.0967 8.82465 11.7848 8.82618C8.76287 8.82618 6.30432 11.3715 6.30432 14.5001C6.30432 17.6287 8.76287 20.174 11.7848 20.174C14.8067 20.174 17.2653 17.6287 17.2653 14.5001V13.3653H11.7848V15.6349Z" fill="white"/>
</svg>
