<svg width="29" height="29" viewBox="0 0 29 29" fill="none" xmlns="http://www.w3.org/2000/svg">
<circle cx="14.5" cy="14.5" r="14.1848" stroke="#464646" stroke-width="0.630435"/>
<path fill-rule="evenodd" clip-rule="evenodd" d="M14.5 16.9819C14.0794 16.9819 13.8541 16.9111 13.6674 16.7791L14.5054 12.6492C14.6116 12.1267 14.2736 11.617 13.7511 11.5108C13.2285 11.4045 12.7189 11.7425 12.6126 12.2651L10.8369 21.0152C10.7654 21.3666 10.8949 21.7121 11.1462 21.9331C11.3768 22.0228 11.6127 22.1022 11.8531 22.1707C12.2745 22.1403 12.6413 21.8336 12.7296 21.3993L13.264 18.7652C13.5783 18.8628 13.9689 18.9132 14.5 18.9132C17.632 18.9132 20.1739 16.3714 20.1739 13.2393C20.1739 10.1084 17.632 7.56543 14.5 7.56543C11.3691 7.56543 8.82611 10.1084 8.82611 13.2393C8.82611 14.2469 9.20488 15.2812 9.80789 16.0323C10.1405 16.4475 10.7489 16.5151 11.1652 16.1815C11.5804 15.8488 11.648 15.2404 11.3143 14.8241C10.9731 14.3981 10.7575 13.8112 10.7575 13.2393C10.7575 11.1739 12.4345 9.49679 14.5 9.49679C16.5655 9.49679 18.2426 11.1739 18.2426 13.2393C18.2426 15.3048 16.5655 16.9819 14.5 16.9819Z" fill="white"/>
</svg>
