<svg width="29" height="29" viewBox="0 0 29 29" fill="none" xmlns="http://www.w3.org/2000/svg">
<circle cx="14.5" cy="14.5" r="14.1848" stroke="#464646" stroke-width="0.630435"/>
<path d="M12.189 14.5002C12.189 13.2236 13.2237 12.1884 14.5003 12.1884C15.777 12.1884 16.8122 13.2236 16.8122 14.5002C16.8122 15.7768 15.777 16.812 14.5003 16.812C13.2237 16.812 12.189 15.7768 12.189 14.5002ZM10.9392 14.5002C10.9392 16.4669 12.5335 18.0612 14.5003 18.0612C16.4671 18.0612 18.0614 16.4669 18.0614 14.5002C18.0614 12.5335 16.4671 10.9393 14.5003 10.9393C12.5335 10.9393 10.9392 12.5335 10.9392 14.5002ZM17.3701 10.7981C17.3701 11.2574 17.7426 11.6305 18.2026 11.6305C18.6619 11.6305 19.035 11.2574 19.035 10.7981C19.035 10.3388 18.6625 9.96628 18.2026 9.96628C17.7426 9.96628 17.3701 10.3388 17.3701 10.7981ZM11.6983 20.1449C11.0221 20.1141 10.6547 20.0015 10.4104 19.9063C10.0866 19.7803 9.85583 19.6302 9.61271 19.3876C9.37016 19.1451 9.21947 18.9143 9.09399 18.5905C8.99875 18.3463 8.88616 17.9788 8.85535 17.3027C8.82174 16.5717 8.81501 16.3521 8.81501 14.5002C8.81501 12.6483 8.8223 12.4293 8.85535 11.6977C8.88616 11.0216 8.99931 10.6547 9.09399 10.4099C9.22003 10.0862 9.37016 9.85536 9.61271 9.61225C9.85527 9.36971 10.0861 9.21902 10.4104 9.09355C10.6547 8.99832 11.0221 8.88573 11.6983 8.85492C12.4293 8.82131 12.6489 8.81459 14.5003 8.81459C16.3523 8.81459 16.5713 8.82187 17.3029 8.85492C17.979 8.88573 18.346 8.99888 18.5908 9.09355C18.9146 9.21902 19.1453 9.36971 19.3885 9.61225C19.631 9.8548 19.7812 10.0862 19.9072 10.4099C20.0024 10.6542 20.115 11.0216 20.1458 11.6977C20.1794 12.4293 20.1862 12.6483 20.1862 14.5002C20.1862 16.3515 20.1794 16.5711 20.1458 17.3027C20.115 17.9788 20.0019 18.3463 19.9072 18.5905C19.7812 18.9143 19.631 19.1451 19.3885 19.3876C19.1459 19.6302 18.9146 19.7803 18.5908 19.9063C18.3465 20.0015 17.979 20.1141 17.3029 20.1449C16.5719 20.1786 16.3523 20.1853 14.5003 20.1853C12.6489 20.1853 12.4293 20.1786 11.6983 20.1449V20.1449ZM11.6411 7.60744C10.9028 7.64105 10.3987 7.75812 9.95779 7.92953C9.5018 8.10654 9.11527 8.34405 8.72931 8.72944C8.3439 9.11483 8.10638 9.50134 7.92937 9.95787C7.75795 10.3987 7.64087 10.9029 7.60726 11.6412C7.57309 12.3806 7.56525 12.617 7.56525 14.5002C7.56525 16.3835 7.57309 16.6199 7.60726 17.3593C7.64087 18.0976 7.75795 18.6017 7.92937 19.0426C8.10638 19.4985 8.34334 19.8856 8.72931 20.271C9.11471 20.6564 9.50124 20.8933 9.95779 21.0709C10.3992 21.2423 10.9028 21.3594 11.6411 21.393C12.3811 21.4266 12.617 21.435 14.5003 21.435C16.3842 21.435 16.62 21.4272 17.3595 21.393C18.0978 21.3594 18.602 21.2423 19.0428 21.0709C19.4988 20.8933 19.8853 20.6564 20.2713 20.271C20.6567 19.8856 20.8937 19.4985 21.0713 19.0426C21.2427 18.6017 21.3603 18.0976 21.3934 17.3593C21.427 16.6193 21.4348 16.3835 21.4348 14.5002C21.4348 12.617 21.427 12.3806 21.3934 11.6412C21.3597 10.9029 21.2427 10.3987 21.0713 9.95787C20.8937 9.5019 20.6567 9.11539 20.2713 8.72944C19.8859 8.34405 19.4988 8.10654 19.0434 7.92953C18.602 7.75812 18.0978 7.64049 17.36 7.60744C16.6206 7.57383 16.3842 7.56543 14.5009 7.56543C12.617 7.56543 12.3811 7.57327 11.6411 7.60744" fill="white"/>
</svg>
