<svg width="28" height="28" viewBox="0 0 28 28" fill="none" xmlns="http://www.w3.org/2000/svg">
<path d="M18.6043 3.40576C16.6672 3.40576 14.8409 4.2967 13.6232 5.74444C12.4055 4.2967 10.5793 3.40576 8.64223 3.40576C5.21076 3.40576 2.55432 6.07832 2.55432 9.53065C2.55432 13.7622 6.31765 17.1591 12.018 22.3926L13.6232 23.8407L15.2284 22.3926C20.9288 17.159 24.6922 13.7621 24.6922 9.53065C24.6922 6.07832 22.0357 3.40576 18.6043 3.40576ZM14.3063 20.9275L14.0818 21.1336L13.6232 21.5472L13.1647 21.1337L12.9405 20.9278C10.2574 18.4648 7.94026 16.3377 6.40843 14.4357C4.92068 12.5884 4.25723 11.0757 4.25723 9.53065C4.25723 8.31387 4.70542 7.19282 5.51925 6.3741C6.33037 5.55808 7.43944 5.10867 8.64223 5.10867C10.033 5.10867 11.4079 5.75615 12.32 6.84059L13.6232 8.39002L14.9264 6.84059C15.8386 5.75615 17.2135 5.10867 18.6043 5.10867C19.8071 5.10867 20.9161 5.55808 21.7273 6.37404C22.5411 7.19282 22.9893 8.31382 22.9893 9.53065C22.9893 11.0757 22.3258 12.5884 20.8382 14.4356C19.3064 16.3376 16.9893 18.4645 14.3063 20.9275V20.9275Z" fill="black"/>
</svg>
