<svg width="22" height="22" viewBox="0 0 22 22" fill="none" xmlns="http://www.w3.org/2000/svg">
<mask id="mask0_2_405" style="mask-type:alpha" maskUnits="userSpaceOnUse" x="1" y="1" width="19" height="19">
<path fill-rule="evenodd" clip-rule="evenodd" d="M1.83334 1.8335H19.6871V19.6874H1.83334V1.8335Z" fill="white"/>
</mask>
<g mask="url(#mask0_2_405)">
<path fill-rule="evenodd" clip-rule="evenodd" d="M10.7606 3.20831C6.59618 3.20831 3.20818 6.59539 3.20818 10.7598C3.20818 14.9242 6.59618 18.3122 10.7606 18.3122C14.9241 18.3122 18.3121 14.9242 18.3121 10.7598C18.3121 6.59539 14.9241 3.20831 10.7606 3.20831M10.7606 19.6874C5.83808 19.6874 1.83316 15.6825 1.83316 10.76C1.83316 5.8375 5.83808 1.8335 10.7606 1.8335C15.6831 1.8335 19.6871 5.8375 19.6871 10.76C19.6871 15.6825 15.6831 19.6874 10.7606 19.6874" fill="#767676"/>
</g>
<mask id="mask1_2_405" style="mask-type:alpha" maskUnits="userSpaceOnUse" x="15" y="16" width="6" height="5">
<path fill-rule="evenodd" clip-rule="evenodd" d="M15.8033 16.2314H20.4087V20.8283H15.8033V16.2314Z" fill="white"/>
</mask>
<g mask="url(#mask1_2_405)">
<path fill-rule="evenodd" clip-rule="evenodd" d="M19.7214 20.8283C19.5463 20.8283 19.3703 20.7614 19.2355 20.6275L16.0052 17.4064C15.7366 17.1378 15.7357 16.7024 16.0043 16.4338C16.272 16.1634 16.7074 16.1652 16.9769 16.432L20.2072 19.654C20.4758 19.9226 20.4767 20.3571 20.2081 20.6257C20.0743 20.7614 19.8974 20.8283 19.7214 20.8283" fill="#767676"/>
</g>
</svg>
