<svg width="27" height="26" viewBox="0 0 27 26" fill="none" xmlns="http://www.w3.org/2000/svg">
<mask id="mask0_2_404" style="mask-type:alpha" maskUnits="userSpaceOnUse" x="5" y="15" width="17" height="8">
<path fill-rule="evenodd" clip-rule="evenodd" d="M5.10974 15.1909H21.7091V22.9185H5.10974V15.1909Z" fill="white"/>
</mask>
<g mask="url(#mask0_2_404)">
<path fill-rule="evenodd" clip-rule="evenodd" d="M13.4104 16.763C8.9451 16.763 6.68154 17.5301 6.68154 19.0444C6.68154 20.5723 8.9451 21.3467 13.4104 21.3467C17.8746 21.3467 20.1372 20.5796 20.1372 19.0654C20.1372 17.5375 17.8746 16.763 13.4104 16.763M13.4104 22.9185C11.3575 22.9185 5.10962 22.9185 5.10962 19.0442C5.10962 15.5902 9.84738 15.1909 13.4104 15.1909C15.4633 15.1909 21.7091 15.1909 21.7091 19.0652C21.7091 22.5192 16.9724 22.9185 13.4104 22.9185" fill="black"/>
</g>
<mask id="mask1_2_404" style="mask-type:alpha" maskUnits="userSpaceOnUse" x="7" y="2" width="12" height="12">
<path fill-rule="evenodd" clip-rule="evenodd" d="M7.84473 2.0957H18.9739V13.2234H7.84473V2.0957Z" fill="white"/>
</mask>
<g mask="url(#mask1_2_404)">
<path fill-rule="evenodd" clip-rule="evenodd" d="M13.4104 3.59208C11.1668 3.59208 9.34127 5.41655 9.34127 7.6602C9.33394 9.89652 11.1458 11.7199 13.3801 11.7283L13.4104 12.4766V11.7283C15.653 11.7283 17.4775 9.9028 17.4775 7.6602C17.4775 5.41655 15.653 3.59208 13.4104 3.59208M13.4104 13.2233H13.3769C10.3148 13.2139 7.83428 10.7167 7.84476 7.65666C7.84476 4.59142 10.341 2.09521 13.4104 2.09521C16.4788 2.09521 18.9739 4.59142 18.9739 7.6598C18.9739 10.7282 16.4788 13.2233 13.4104 13.2233" fill="black"/>
</g>
</svg>
